<svg viewBox="0 0 24 24" xmlns="http://www.w3.org/2000/svg" xmlns:xlink="http://www.w3.org/1999/xlink" width="24.000000" height="24.000000" fill="none" customFrame="#000000">
	<rect id="Frame 211" width="24.000000" height="24.000000" x="0.000000" y="0.000000" fill="rgb(255,255,255)" fill-opacity="0" />
	<path id="Shape (Stroke)" d="M11.3325 1.89776L3.33366 5.89721L3.33255 5.89776C2.82288 6.15102 2.50045 6.67089 2.50005 7.24L2.50005 16.7635C2.49608 17.3334 2.81541 17.8563 3.32416 18.113L11.3237 22.1128C11.7462 22.3242 12.2438 22.3243 12.6663 22.1129L20.6664 18.1128L20.6675 18.1122C21.1773 17.8589 21.4997 17.3389 21.5 16.7697L21.5 7.24026C21.4997 6.67105 21.1773 6.15106 20.6675 5.89776L20.6664 5.89721L12.6675 1.89776C12.2474 1.6892 11.7527 1.68919 11.3325 1.89776ZM10.8875 1.00223C11.5883 0.654001 12.4118 0.654001 13.1125 1.00223L13.1137 1.00278L21.1125 5.00223C21.9618 5.42448 22.4995 6.29123 22.5 7.23973L22.5 16.77C22.4995 17.7184 21.9624 18.5852 21.1132 19.0074L13.1138 23.0071C12.4097 23.3594 11.5806 23.3595 10.8764 23.0072L2.87644 19.0072L2.87506 19.0065C2.02685 18.5791 1.49413 17.708 1.50005 16.7584L1.50005 7.24C1.50055 6.29154 2.03772 5.4248 2.88695 5.00253L10.8864 1.00278L10.8875 1.00223Z" fill="rgb(64.8125,64.8125,64.8125)" fill-rule="evenodd" />
	<path id="Shape (Stroke)" d="M1.87321 5.93638C1.9967 5.68939 2.29704 5.58928 2.54403 5.71278L12.0004 10.441L21.4568 5.71278C21.7038 5.58928 22.0041 5.68939 22.1276 5.93638C22.2511 6.18337 22.151 6.48371 21.904 6.6072L12.224 11.4472C12.0833 11.5176 11.9176 11.5176 11.7768 11.4472L2.09682 6.6072C1.84983 6.48371 1.74971 6.18337 1.87321 5.93638Z" fill="rgb(64.8125,64.8125,64.8125)" fill-rule="evenodd" />
	<path id="Shape (Stroke)" d="M12 10.5C12.2761 10.5 12.5 10.7239 12.5 11L12.5 22.76C12.5 23.0361 12.2761 23.26 12 23.26C11.7239 23.26 11.5 23.0361 11.5 22.76L11.5 11C11.5 10.7239 11.7239 10.5 12 10.5Z" fill="rgb(64.8125,64.8125,64.8125)" fill-rule="evenodd" />
	<path id="Shape (Stroke)" d="M6.5529 3.27638C6.67639 3.02939 6.97673 2.92928 7.22372 3.05277L17.2237 8.05277C17.4707 8.17627 17.5708 8.4766 17.4473 8.72359C17.3238 8.97058 17.0235 9.0707 16.7765 8.9472L6.7765 3.9472C6.52951 3.82371 6.4294 3.52337 6.5529 3.27638Z" fill="rgb(64.8125,64.8125,64.8125)" fill-rule="evenodd" />
</svg>
